<svg width="240" height="80" viewBox="0 0 240 80" fill="none" xmlns="http://www.w3.org/2000/svg">
<rect width="240" height="80" rx="8" fill="#353535"/>
<path d="M53.0795 40.5899C53.1049 38.6734 53.6305 36.7943 54.6073 35.1274C55.5841 33.4606 56.9803 32.0601 58.6661 31.0563C57.5952 29.5749 56.1824 28.3558 54.5399 27.4958C52.8974 26.6358 51.0706 26.1586 49.2044 26.102C45.2234 25.6973 41.3641 28.4092 39.3355 28.4092C37.2676 28.4092 34.1443 26.1422 30.7809 26.2092C28.6054 26.2773 26.4852 26.89 24.6269 27.9877C22.7686 29.0854 21.2356 30.6306 20.1771 32.4727C15.5924 40.161 19.0122 51.4603 23.4041 57.675C25.6015 60.7181 28.1695 64.1174 31.5299 63.9969C34.8181 63.8648 36.0462 61.966 40.0154 61.966C43.9478 61.966 45.1 63.9969 48.5285 63.9202C52.057 63.8648 54.28 60.8636 56.4003 57.7916C57.9791 55.6232 59.194 53.2267 60 50.6909C57.9501 49.8511 56.2007 48.4455 54.97 46.6492C53.7394 44.853 53.0818 42.7456 53.0795 40.5899Z" fill="white"/>
<path d="M46.6037 22.0149C48.5276 19.778 49.4754 16.9028 49.2459 14C46.3067 14.299 43.5916 15.6596 41.6418 17.8106C40.6884 18.8615 39.9583 20.084 39.493 21.4083C39.0278 22.7327 38.8366 24.1328 38.9304 25.5288C40.4006 25.5434 41.855 25.2348 43.1841 24.6261C44.5132 24.0175 45.6825 23.1246 46.6037 22.0149Z" fill="white"/>
<path d="M79.68 25V15.016H76.48V13.8H84.256V15.016H80.928V25H79.68ZM87.557 25.16C86.8317 25.16 86.1757 24.9733 85.589 24.6C85.0023 24.216 84.5383 23.6987 84.197 23.048C83.8557 22.3867 83.685 21.64 83.685 20.808C83.685 19.9653 83.861 19.2187 84.213 18.568C84.565 17.9173 85.0343 17.4053 85.621 17.032C86.2183 16.6587 86.885 16.472 87.621 16.472C88.0583 16.472 88.4637 16.536 88.837 16.664C89.2103 16.792 89.541 16.9733 89.829 17.208C90.1277 17.432 90.373 17.6987 90.565 18.008C90.7677 18.3067 90.9063 18.632 90.981 18.984L90.629 18.808L90.677 16.648H91.877V25H90.661V22.952L90.981 22.744C90.9063 23.064 90.7623 23.3733 90.549 23.672C90.3357 23.96 90.0743 24.216 89.765 24.44C89.4663 24.664 89.125 24.84 88.741 24.968C88.3677 25.096 87.973 25.16 87.557 25.16ZM87.829 24.008C88.3837 24.008 88.8797 23.8747 89.317 23.608C89.7543 23.3307 90.0957 22.952 90.341 22.472C90.597 21.9813 90.725 21.4267 90.725 20.808C90.725 20.1893 90.597 19.64 90.341 19.16C90.0957 18.68 89.7543 18.3013 89.317 18.024C88.8797 17.7467 88.3837 17.608 87.829 17.608C87.2637 17.608 86.7623 17.7467 86.325 18.024C85.8983 18.3013 85.557 18.68 85.301 19.16C85.0557 19.64 84.933 20.1893 84.933 20.808C84.933 21.416 85.0557 21.9653 85.301 22.456C85.5463 22.936 85.8877 23.3147 86.325 23.592C86.7623 23.8693 87.2637 24.008 87.829 24.008ZM87.829 15.464C87.7757 15.3787 87.733 15.2933 87.701 15.208C87.669 15.112 87.653 15.0267 87.653 14.952C87.653 14.8667 87.6797 14.7707 87.733 14.664C87.7863 14.5573 87.8983 14.4453 88.069 14.328C88.2397 14.2107 88.3677 14.1147 88.453 14.04C88.549 13.9653 88.597 13.8853 88.597 13.8C88.597 13.6827 88.533 13.5973 88.405 13.544C88.2877 13.4907 88.1383 13.464 87.957 13.464C87.797 13.464 87.6157 13.4907 87.413 13.544C87.2103 13.5867 87.013 13.6507 86.821 13.736L86.581 12.936C86.8157 12.8187 87.061 12.7333 87.317 12.68C87.5837 12.616 87.8237 12.584 88.037 12.584C88.5597 12.584 88.949 12.696 89.205 12.92C89.461 13.144 89.589 13.4053 89.589 13.704C89.589 13.9493 89.525 14.1413 89.397 14.28C89.269 14.4187 89.1303 14.5307 88.981 14.616C88.8317 14.7013 88.7143 14.776 88.629 14.84C88.5437 14.904 88.501 14.9947 88.501 15.112C88.501 15.1333 88.501 15.16 88.501 15.192C88.5117 15.2133 88.5223 15.2453 88.533 15.288L87.829 15.464ZM94.5349 25V16.648H95.7349V25H94.5349ZM95.1269 14.84C94.8282 14.84 94.5989 14.7653 94.4389 14.616C94.2895 14.456 94.2149 14.2427 94.2149 13.976C94.2149 13.7093 94.2949 13.496 94.4549 13.336C94.6149 13.176 94.8389 13.096 95.1269 13.096C95.4149 13.096 95.6389 13.176 95.7989 13.336C95.9589 13.4853 96.0389 13.6987 96.0389 13.976C96.0389 14.232 95.9589 14.44 95.7989 14.6C95.6389 14.76 95.4149 14.84 95.1269 14.84ZM102.84 25V16.648H104.024L104.072 18.392L103.88 18.472C103.987 18.1093 104.195 17.7787 104.504 17.48C104.813 17.1813 105.181 16.9413 105.608 16.76C106.045 16.568 106.493 16.472 106.952 16.472C107.571 16.472 108.088 16.5947 108.504 16.84C108.92 17.0853 109.235 17.464 109.448 17.976C109.661 18.488 109.768 19.1387 109.768 19.928V25H108.552V19.992C108.552 19.4373 108.477 18.984 108.328 18.632C108.189 18.2693 107.971 18.0027 107.672 17.832C107.373 17.6613 107.005 17.5813 106.568 17.592C106.205 17.592 105.869 17.656 105.56 17.784C105.251 17.9013 104.984 18.0667 104.76 18.28C104.536 18.4933 104.36 18.7387 104.232 19.016C104.104 19.2933 104.04 19.592 104.04 19.912V25H103.448C103.373 25 103.288 25 103.192 25C103.096 25 102.979 25 102.84 25ZM115.659 28.68C115.04 28.68 114.453 28.584 113.899 28.392C113.344 28.2 112.885 27.96 112.523 27.672L113.003 26.664C113.216 26.8347 113.461 26.984 113.739 27.112C114.027 27.2507 114.336 27.3573 114.667 27.432C114.997 27.5173 115.333 27.56 115.675 27.56C116.293 27.56 116.816 27.4427 117.243 27.208C117.68 26.984 118.011 26.648 118.235 26.2C118.469 25.752 118.587 25.1973 118.587 24.536V22.936L118.779 22.888C118.683 23.2933 118.475 23.672 118.155 24.024C117.835 24.3653 117.445 24.6427 116.987 24.856C116.528 25.0587 116.043 25.16 115.531 25.16C114.752 25.16 114.053 24.9733 113.435 24.6C112.827 24.2267 112.347 23.7147 111.995 23.064C111.643 22.4027 111.467 21.656 111.467 20.824C111.467 19.9813 111.643 19.2347 111.995 18.584C112.357 17.9227 112.843 17.4053 113.451 17.032C114.059 16.6587 114.741 16.472 115.499 16.472C115.829 16.472 116.149 16.5147 116.459 16.6C116.768 16.6747 117.051 16.7867 117.307 16.936C117.573 17.0853 117.813 17.256 118.027 17.448C118.24 17.64 118.416 17.848 118.555 18.072C118.704 18.296 118.811 18.5253 118.875 18.76L118.539 18.712L118.587 16.648H119.787V24.488C119.787 25.16 119.691 25.752 119.499 26.264C119.307 26.7867 119.024 27.224 118.651 27.576C118.288 27.9387 117.851 28.2107 117.339 28.392C116.837 28.584 116.277 28.68 115.659 28.68ZM115.675 24.008C116.24 24.008 116.741 23.8747 117.179 23.608C117.627 23.3307 117.979 22.952 118.235 22.472C118.491 21.992 118.619 21.4373 118.619 20.808C118.619 20.1893 118.491 19.64 118.235 19.16C117.989 18.68 117.643 18.3013 117.195 18.024C116.747 17.7467 116.24 17.608 115.675 17.608C115.099 17.608 114.587 17.7467 114.139 18.024C113.701 18.3013 113.355 18.68 113.099 19.16C112.843 19.64 112.715 20.1893 112.715 20.808C112.715 21.416 112.837 21.9653 113.083 22.456C113.339 22.936 113.685 23.3147 114.123 23.592C114.571 23.8693 115.088 24.008 115.675 24.008ZM125.385 25.16C124.66 25.16 124.004 24.9733 123.417 24.6C122.83 24.216 122.366 23.6987 122.025 23.048C121.684 22.3867 121.513 21.64 121.513 20.808C121.513 19.9653 121.689 19.2187 122.041 18.568C122.393 17.9173 122.862 17.4053 123.449 17.032C124.046 16.6587 124.713 16.472 125.449 16.472C125.886 16.472 126.292 16.536 126.665 16.664C127.038 16.792 127.369 16.9733 127.657 17.208C127.956 17.432 128.201 17.6987 128.393 18.008C128.596 18.3067 128.734 18.632 128.809 18.984L128.457 18.808L128.505 16.648H129.705V25H128.489V22.952L128.809 22.744C128.734 23.064 128.59 23.3733 128.377 23.672C128.164 23.96 127.902 24.216 127.593 24.44C127.294 24.664 126.953 24.84 126.569 24.968C126.196 25.096 125.801 25.16 125.385 25.16ZM125.657 24.008C126.212 24.008 126.708 23.8747 127.145 23.608C127.582 23.3307 127.924 22.952 128.169 22.472C128.425 21.9813 128.553 21.4267 128.553 20.808C128.553 20.1893 128.425 19.64 128.169 19.16C127.924 18.68 127.582 18.3013 127.145 18.024C126.708 17.7467 126.212 17.608 125.657 17.608C125.092 17.608 124.59 17.7467 124.153 18.024C123.726 18.3013 123.385 18.68 123.129 19.16C122.884 19.64 122.761 20.1893 122.761 20.808C122.761 21.416 122.884 21.9653 123.129 22.456C123.374 22.936 123.716 23.3147 124.153 23.592C124.59 23.8693 125.092 24.008 125.657 24.008ZM133.264 28.68L134.88 24.744L134.992 25.88L130.8 16.648H132.16L135.024 23.048C135.109 23.2187 135.194 23.4213 135.28 23.656C135.365 23.88 135.445 24.104 135.52 24.328L135.072 24.28C135.146 24.0987 135.216 23.912 135.28 23.72C135.354 23.528 135.424 23.3413 135.488 23.16L138 16.648H139.376L136 25L134.56 28.68H133.264Z" fill="white"/>
<path d="M76.384 57L82.936 40.2H85.864L92.368 57H89.128L85.528 47.448C85.448 47.256 85.336 46.952 85.192 46.536C85.064 46.12 84.92 45.672 84.76 45.192C84.6 44.696 84.456 44.24 84.328 43.824C84.2 43.392 84.104 43.08 84.04 42.888L84.64 42.864C84.544 43.184 84.432 43.544 84.304 43.944C84.176 44.344 84.04 44.76 83.896 45.192C83.752 45.624 83.608 46.04 83.464 46.44C83.336 46.84 83.216 47.2 83.104 47.52L79.504 57H76.384ZM79.36 53.16L80.44 50.448H88.096L89.248 53.16H79.36ZM94.4858 62.28V44.352H97.3898L97.4378 47.232L96.9338 47.016C97.0298 46.52 97.3018 46.056 97.7498 45.624C98.1978 45.176 98.7418 44.816 99.3818 44.544C100.038 44.272 100.718 44.136 101.422 44.136C102.542 44.136 103.534 44.416 104.398 44.976C105.278 45.536 105.966 46.304 106.462 47.28C106.974 48.256 107.23 49.384 107.23 50.664C107.23 51.928 106.974 53.056 106.462 54.048C105.966 55.024 105.278 55.8 104.398 56.376C103.534 56.936 102.558 57.216 101.47 57.216C100.734 57.216 100.022 57.072 99.3338 56.784C98.6618 56.496 98.0858 56.12 97.6058 55.656C97.1418 55.192 96.8538 54.704 96.7418 54.192L97.4618 53.856V62.28H94.4858ZM100.87 54.6C101.542 54.6 102.142 54.432 102.67 54.096C103.198 53.76 103.606 53.296 103.894 52.704C104.198 52.112 104.35 51.432 104.35 50.664C104.35 49.896 104.206 49.224 103.918 48.648C103.63 48.056 103.222 47.592 102.694 47.256C102.166 46.92 101.558 46.752 100.87 46.752C100.166 46.752 99.5498 46.92 99.0218 47.256C98.5098 47.576 98.1018 48.032 97.7978 48.624C97.4938 49.216 97.3418 49.896 97.3418 50.664C97.3418 51.432 97.4938 52.112 97.7978 52.704C98.1018 53.296 98.5098 53.76 99.0218 54.096C99.5498 54.432 100.166 54.6 100.87 54.6ZM109.861 62.28V44.352H112.765L112.813 47.232L112.309 47.016C112.405 46.52 112.677 46.056 113.125 45.624C113.573 45.176 114.117 44.816 114.757 44.544C115.413 44.272 116.093 44.136 116.797 44.136C117.917 44.136 118.909 44.416 119.773 44.976C120.653 45.536 121.341 46.304 121.837 47.28C122.349 48.256 122.605 49.384 122.605 50.664C122.605 51.928 122.349 53.056 121.837 54.048C121.341 55.024 120.653 55.8 119.773 56.376C118.909 56.936 117.933 57.216 116.845 57.216C116.109 57.216 115.397 57.072 114.709 56.784C114.037 56.496 113.461 56.12 112.981 55.656C112.517 55.192 112.229 54.704 112.117 54.192L112.837 53.856V62.28H109.861ZM116.245 54.6C116.917 54.6 117.517 54.432 118.045 54.096C118.573 53.76 118.981 53.296 119.269 52.704C119.573 52.112 119.725 51.432 119.725 50.664C119.725 49.896 119.581 49.224 119.293 48.648C119.005 48.056 118.597 47.592 118.069 47.256C117.541 46.92 116.933 46.752 116.245 46.752C115.541 46.752 114.925 46.92 114.397 47.256C113.885 47.576 113.477 48.032 113.173 48.624C112.869 49.216 112.717 49.896 112.717 50.664C112.717 51.432 112.869 52.112 113.173 52.704C113.477 53.296 113.885 53.76 114.397 54.096C114.925 54.432 115.541 54.6 116.245 54.6ZM125.26 57V39.24H128.236V57H125.26ZM137.398 57.24C136.07 57.24 134.894 56.96 133.87 56.4C132.862 55.84 132.07 55.08 131.494 54.12C130.934 53.144 130.654 52.032 130.654 50.784C130.654 49.792 130.814 48.888 131.134 48.072C131.454 47.256 131.894 46.552 132.454 45.96C133.03 45.352 133.71 44.888 134.494 44.568C135.294 44.232 136.166 44.064 137.11 44.064C137.942 44.064 138.718 44.224 139.438 44.544C140.158 44.864 140.782 45.304 141.31 45.864C141.838 46.408 142.238 47.064 142.51 47.832C142.798 48.584 142.934 49.408 142.918 50.304L142.894 51.336H132.646L132.094 49.32H140.422L140.038 49.728V49.2C139.99 48.704 139.83 48.272 139.558 47.904C139.286 47.52 138.934 47.224 138.502 47.016C138.086 46.792 137.622 46.68 137.11 46.68C136.326 46.68 135.662 46.832 135.118 47.136C134.59 47.44 134.19 47.88 133.918 48.456C133.646 49.016 133.51 49.72 133.51 50.568C133.51 51.384 133.678 52.096 134.014 52.704C134.366 53.312 134.854 53.784 135.478 54.12C136.118 54.44 136.862 54.6 137.71 54.6C138.302 54.6 138.846 54.504 139.342 54.312C139.838 54.12 140.374 53.776 140.95 53.28L142.414 55.32C141.982 55.72 141.486 56.064 140.926 56.352C140.382 56.624 139.806 56.84 139.198 57C138.59 57.16 137.99 57.24 137.398 57.24ZM158.443 57.24C157.467 57.24 156.571 57.12 155.755 56.88C154.939 56.624 154.203 56.248 153.547 55.752C152.891 55.256 152.307 54.656 151.795 53.952L153.835 51.648C154.619 52.736 155.387 53.488 156.139 53.904C156.891 54.32 157.739 54.528 158.683 54.528C159.227 54.528 159.723 54.448 160.171 54.288C160.619 54.112 160.971 53.88 161.227 53.592C161.483 53.288 161.611 52.944 161.611 52.56C161.611 52.288 161.555 52.04 161.443 51.816C161.347 51.576 161.195 51.368 160.987 51.192C160.779 51 160.523 50.824 160.219 50.664C159.915 50.504 159.571 50.368 159.187 50.256C158.803 50.144 158.379 50.04 157.915 49.944C157.035 49.768 156.267 49.536 155.611 49.248C154.955 48.944 154.403 48.576 153.955 48.144C153.507 47.696 153.179 47.2 152.971 46.656C152.763 46.096 152.659 45.464 152.659 44.76C152.659 44.056 152.811 43.408 153.115 42.816C153.435 42.224 153.867 41.712 154.411 41.28C154.955 40.848 155.587 40.512 156.307 40.272C157.027 40.032 157.803 39.912 158.635 39.912C159.579 39.912 160.419 40.024 161.155 40.248C161.907 40.472 162.563 40.808 163.123 41.256C163.699 41.688 164.171 42.216 164.539 42.84L162.475 44.88C162.155 44.384 161.795 43.976 161.395 43.656C160.995 43.32 160.563 43.072 160.099 42.912C159.635 42.736 159.147 42.648 158.635 42.648C158.059 42.648 157.555 42.728 157.123 42.888C156.707 43.048 156.379 43.28 156.139 43.584C155.899 43.872 155.779 44.224 155.779 44.64C155.779 44.96 155.851 45.248 155.995 45.504C156.139 45.744 156.339 45.96 156.595 46.152C156.867 46.344 157.211 46.512 157.627 46.656C158.043 46.8 158.515 46.928 159.043 47.04C159.923 47.216 160.715 47.456 161.419 47.76C162.123 48.048 162.723 48.4 163.219 48.816C163.715 49.216 164.091 49.68 164.347 50.208C164.603 50.72 164.731 51.296 164.731 51.936C164.731 53.04 164.467 53.992 163.939 54.792C163.427 55.576 162.699 56.184 161.755 56.616C160.811 57.032 159.707 57.24 158.443 57.24ZM169.002 57V41.136H171.954V57H169.002ZM166.506 47.088V44.352H174.714V47.088H166.506ZM182.629 57.24C181.365 57.24 180.237 56.96 179.245 56.4C178.253 55.824 177.469 55.04 176.893 54.048C176.317 53.056 176.029 51.928 176.029 50.664C176.029 49.4 176.317 48.272 176.893 47.28C177.469 46.288 178.253 45.512 179.245 44.952C180.237 44.376 181.365 44.088 182.629 44.088C183.877 44.088 184.997 44.376 185.989 44.952C186.981 45.512 187.757 46.288 188.317 47.28C188.893 48.272 189.181 49.4 189.181 50.664C189.181 51.928 188.893 53.056 188.317 54.048C187.757 55.04 186.981 55.824 185.989 56.4C184.997 56.96 183.877 57.24 182.629 57.24ZM182.629 54.624C183.317 54.624 183.925 54.448 184.453 54.096C184.997 53.744 185.421 53.272 185.725 52.68C186.045 52.088 186.197 51.416 186.181 50.664C186.197 49.896 186.045 49.216 185.725 48.624C185.421 48.032 184.997 47.568 184.453 47.232C183.925 46.88 183.317 46.704 182.629 46.704C181.941 46.704 181.317 46.88 180.757 47.232C180.213 47.568 179.789 48.04 179.485 48.648C179.181 49.24 179.029 49.912 179.029 50.664C179.029 51.416 179.181 52.088 179.485 52.68C179.789 53.272 180.213 53.744 180.757 54.096C181.317 54.448 181.941 54.624 182.629 54.624ZM191.822 57V44.352H194.726L194.774 48.384L194.366 47.472C194.542 46.832 194.846 46.256 195.278 45.744C195.71 45.232 196.206 44.832 196.766 44.544C197.342 44.24 197.942 44.088 198.566 44.088C198.838 44.088 199.094 44.112 199.334 44.16C199.59 44.208 199.798 44.264 199.958 44.328L199.166 47.568C198.99 47.472 198.774 47.392 198.518 47.328C198.262 47.264 198.006 47.232 197.75 47.232C197.35 47.232 196.966 47.312 196.598 47.472C196.246 47.616 195.934 47.824 195.662 48.096C195.39 48.368 195.174 48.688 195.014 49.056C194.87 49.408 194.798 49.808 194.798 50.256V57H191.822ZM207.312 57.24C205.984 57.24 204.808 56.96 203.784 56.4C202.776 55.84 201.984 55.08 201.408 54.12C200.848 53.144 200.568 52.032 200.568 50.784C200.568 49.792 200.728 48.888 201.048 48.072C201.368 47.256 201.808 46.552 202.368 45.96C202.944 45.352 203.624 44.888 204.408 44.568C205.208 44.232 206.08 44.064 207.024 44.064C207.856 44.064 208.632 44.224 209.352 44.544C210.072 44.864 210.696 45.304 211.224 45.864C211.752 46.408 212.152 47.064 212.424 47.832C212.712 48.584 212.848 49.408 212.832 50.304L212.808 51.336H202.56L202.008 49.32H210.336L209.952 49.728V49.2C209.904 48.704 209.744 48.272 209.472 47.904C209.2 47.52 208.848 47.224 208.416 47.016C208 46.792 207.536 46.68 207.024 46.68C206.24 46.68 205.576 46.832 205.032 47.136C204.504 47.44 204.104 47.88 203.832 48.456C203.56 49.016 203.424 49.72 203.424 50.568C203.424 51.384 203.592 52.096 203.928 52.704C204.28 53.312 204.768 53.784 205.392 54.12C206.032 54.44 206.776 54.6 207.624 54.6C208.216 54.6 208.76 54.504 209.256 54.312C209.752 54.12 210.288 53.776 210.864 53.28L212.328 55.32C211.896 55.72 211.4 56.064 210.84 56.352C210.296 56.624 209.72 56.84 209.112 57C208.504 57.16 207.904 57.24 207.312 57.24Z" fill="white"/>
</svg>
