<svg width="160" height="109" viewBox="0 0 160 109" fill="none" xmlns="http://www.w3.org/2000/svg">
<path d="M139.349 108.323L144.587 95.9844L144.674 99.5346L133.59 75.376H141.427L146.276 86.9357C146.536 87.513 146.781 88.1336 147.012 88.7974C147.243 89.4613 147.416 90.0963 147.531 90.7024L146.579 91.2652C146.752 90.8323 146.94 90.2983 147.142 89.6633C147.373 88.9995 147.618 88.2923 147.878 87.5419L152.121 75.376H160L150.216 98.3656L146.233 108.323H139.349Z" fill="white"/>
<path d="M121.103 98.3654V69.5742H128.03V98.3654H121.103ZM117.033 81.437V75.3757H132.489V81.437H117.033Z" fill="white"/>
<path d="M105.762 98.3653V75.3757H112.689V98.3653H105.762ZM109.225 70.8297C107.927 70.8297 106.902 70.5266 106.152 69.9205C105.43 69.2855 105.069 68.3908 105.069 67.2362C105.069 66.1971 105.444 65.3457 106.195 64.6818C106.945 64.018 107.955 63.686 109.225 63.686C110.524 63.686 111.535 64.0035 112.256 64.6385C112.978 65.2447 113.339 66.1106 113.339 67.2362C113.339 68.3042 112.963 69.1701 112.213 69.8339C111.491 70.4978 110.495 70.8297 109.225 70.8297Z" fill="white"/>
<path d="M85.6695 98.3653V75.3757H92.2503L92.5534 82.8657L91.2546 81.437C91.6009 80.1958 92.1638 79.0846 92.9431 78.1032C93.7512 77.1219 94.6893 76.3426 95.7572 75.7653C96.8252 75.188 97.9653 74.8994 99.1775 74.8994C99.6971 74.8994 100.173 74.9427 100.606 75.0293C101.068 75.1159 101.487 75.2169 101.862 75.3324L99.9568 82.9956C99.6394 82.7935 99.2064 82.6348 98.658 82.5193C98.1385 82.375 97.5901 82.3029 97.0128 82.3029C96.3778 82.3029 95.7861 82.4183 95.2377 82.6492C94.6893 82.8513 94.2275 83.1543 93.8523 83.5584C93.477 83.9625 93.174 84.4387 92.9431 84.9871C92.741 85.5355 92.64 86.1561 92.64 86.8488V98.3653H85.6695Z" fill="white"/>
<path d="M65.6159 98.7549C63.6821 98.7549 61.9503 98.2498 60.4205 97.2396C58.9196 96.2005 57.7218 94.7862 56.827 92.9967C55.9323 91.1783 55.4849 89.129 55.4849 86.8488C55.4849 84.5109 55.9323 82.4472 56.827 80.6576C57.7218 78.8681 58.9485 77.4682 60.5071 76.458C62.0657 75.419 63.8408 74.8994 65.8324 74.8994C66.9292 74.8994 67.925 75.0582 68.8197 75.3757C69.7434 75.6932 70.5515 76.1405 71.2442 76.7178C71.937 77.2662 72.5287 77.9156 73.0193 78.6661C73.51 79.3877 73.8708 80.167 74.1017 81.004L72.673 80.8308V75.3757H79.5569V98.3653H72.5431V92.8235L74.1017 92.7802C73.8708 93.5884 73.4956 94.3533 72.976 95.0749C72.4565 95.7965 71.8215 96.4314 71.0711 96.9799C70.3206 97.5283 69.4836 97.9612 68.56 98.2787C67.6363 98.5962 66.655 98.7549 65.6159 98.7549ZM67.5209 92.9101C68.5888 92.9101 69.5125 92.6648 70.2918 92.1741C71.0711 91.6834 71.6772 90.9907 72.1101 90.096C72.5431 89.1723 72.7596 88.09 72.7596 86.8488C72.7596 85.6077 72.5431 84.5398 72.1101 83.645C71.6772 82.7214 71.0711 82.0142 70.2918 81.5235C69.5125 81.004 68.5888 80.7442 67.5209 80.7442C66.4818 80.7442 65.5726 81.004 64.7933 81.5235C64.0429 82.0142 63.4512 82.7214 63.0182 83.645C62.5853 84.5398 62.3688 85.6077 62.3688 86.8488C62.3688 88.09 62.5853 89.1723 63.0182 90.096C63.4512 90.9907 64.0429 91.6834 64.7933 92.1741C65.5726 92.6648 66.4818 92.9101 67.5209 92.9101Z" fill="white"/>
<path d="M29.6482 98.3649V66.3267H36.4455V80.0512L35.0601 80.5707C35.3776 79.5316 35.9404 78.5936 36.7486 77.7565C37.5856 76.8906 38.5814 76.1979 39.7359 75.6784C40.8905 75.1588 42.1027 74.8991 43.3727 74.8991C45.1045 74.8991 46.5621 75.2599 47.7455 75.9814C48.9289 76.6742 49.8237 77.7277 50.4298 79.142C51.0359 80.5274 51.339 82.2303 51.339 84.2508V98.3649H44.3685V84.8136C44.3685 83.89 44.2386 83.1251 43.9788 82.519C43.7191 81.9129 43.315 81.4655 42.7666 81.1768C42.247 80.8593 41.5976 80.715 40.8183 80.7439C40.2122 80.7439 39.6494 80.8449 39.1298 81.047C38.6103 81.2201 38.1629 81.4943 37.7877 81.8696C37.4124 82.2159 37.1094 82.62 36.8785 83.0818C36.6764 83.5436 36.5754 84.0487 36.5754 84.5971V98.3649H33.1551C32.3469 98.3649 31.6542 98.3649 31.0769 98.3649C30.4997 98.3649 30.0234 98.3649 29.6482 98.3649Z" fill="white"/>
<path d="M12.9885 98.7984C10.9969 98.7984 9.19297 98.5675 7.57662 98.1056C5.98914 97.615 4.57484 96.9223 3.33371 96.0275C2.09259 95.1039 0.981353 94.0215 0 92.7804L4.45938 87.7149C5.90255 89.6487 7.34571 90.9475 8.78888 91.6114C10.2609 92.2753 11.7762 92.6072 13.3349 92.6072C14.1142 92.6072 14.8213 92.5062 15.4563 92.3041C16.0913 92.1021 16.582 91.8134 16.9283 91.4382C17.2747 91.0341 17.4479 90.5435 17.4479 89.9662C17.4479 89.5332 17.3324 89.1436 17.1015 88.7972C16.8995 88.4509 16.6108 88.1478 16.2356 87.888C15.8604 87.6283 15.413 87.3974 14.8935 87.1953C14.3739 86.9644 13.8255 86.7768 13.2483 86.6325C12.671 86.4593 12.0793 86.315 11.4732 86.1995C9.7991 85.8243 8.3415 85.3625 7.10038 84.8141C5.85925 84.2657 4.82017 83.6018 3.98314 82.8225C3.17496 82.0143 2.56884 81.1052 2.16475 80.0949C1.76066 79.0559 1.55862 77.9013 1.55862 76.6313C1.55862 75.2748 1.86168 74.0336 2.46781 72.908C3.10281 71.7534 3.93984 70.7721 4.97892 69.9639C6.04686 69.1269 7.27356 68.4919 8.659 68.0589C10.0444 67.5971 11.4876 67.3662 12.9885 67.3662C14.9801 67.3662 16.683 67.5827 18.0973 68.0156C19.5405 68.4197 20.7672 69.0114 21.7774 69.7907C22.8165 70.57 23.6968 71.5081 24.4184 72.6049L19.8724 76.9777C19.2663 76.2273 18.6024 75.6067 17.8808 75.116C17.1881 74.6253 16.4377 74.2501 15.6295 73.9903C14.8502 73.7306 14.042 73.6007 13.205 73.6007C12.3391 73.6007 11.5886 73.7161 10.9536 73.947C10.3475 74.1491 9.87125 74.4522 9.52489 74.8562C9.17853 75.2315 9.00535 75.6933 9.00535 76.2417C9.00535 76.7324 9.14967 77.1509 9.4383 77.4972C9.72694 77.8436 10.1166 78.1611 10.6073 78.4497C11.0979 78.7095 11.6608 78.9404 12.2958 79.1424C12.9308 79.3156 13.5946 79.4599 14.2873 79.5754C15.8748 79.8929 17.3036 80.3114 18.5735 80.8309C19.8724 81.3505 20.9836 81.9855 21.9073 82.7359C22.8597 83.4864 23.5813 84.3811 24.072 85.4202C24.5915 86.4304 24.8513 87.6138 24.8513 88.9704C24.8513 91.0774 24.3318 92.867 23.2927 94.339C22.2825 95.7822 20.8826 96.8934 19.0931 97.6727C17.3324 98.4231 15.2976 98.7984 12.9885 98.7984Z" fill="white"/>
<path d="M70.1292 63.9132C64.2479 63.9078 58.6074 61.6028 54.4382 57.5011C50.269 53.3993 47.9095 47.8336 47.8744 42.0183V38.6227C47.8744 37.3388 48.3902 36.1075 49.3083 35.1996C50.2265 34.2918 51.4717 33.7818 52.7702 33.7818C54.0686 33.7818 55.3139 34.2918 56.232 35.1996C57.1501 36.1075 57.6659 37.3388 57.6659 38.6227V42.0183C57.6973 45.2682 59.0249 48.3744 61.3602 50.6614C63.6954 52.9485 66.8494 54.2315 70.1362 54.2313L92.5729 54.1829C95.6282 53.6346 98.3598 51.9616 100.217 49.501C101.634 47.4525 102.366 45.0164 102.309 42.5353C102.253 40.0543 101.411 37.6532 99.9025 35.6697C97.2378 32.3986 93.1953 31.6932 91.7476 31.5203H59.4284C56.367 31.5149 53.4325 30.3104 51.2671 28.1705C49.1017 26.0307 47.8818 23.1297 47.8744 20.1026V19.086C47.8756 18.843 47.8943 18.6003 47.9303 18.3599C48.6602 13.319 51.1669 8.69492 55.0082 5.30314C62.226 -0.844866 73.3045 -1.39812 81.3545 3.98225C84.5989 6.18416 87.1665 9.22791 88.7751 12.779C89.0424 13.3575 89.1918 13.9824 89.2149 14.618C89.2379 15.2536 89.1341 15.8874 88.9094 16.4834C88.6847 17.0793 88.3435 17.6257 87.9052 18.0912C87.467 18.5568 86.9403 18.9324 86.3552 19.1967C85.7702 19.4609 85.1382 19.6087 84.4954 19.6315C83.8526 19.6542 83.2115 19.5516 82.6088 19.3294C82.0061 19.1072 81.4536 18.7698 80.9828 18.3365C80.512 17.9032 80.1321 17.3824 79.8648 16.8039C78.9953 14.8695 77.607 13.2073 75.8503 11.9975C71.535 9.12058 65.1775 9.3972 61.3797 12.6337C59.3947 14.438 58.0857 16.8535 57.6659 19.4871V20.1026C57.6659 20.5655 57.8514 21.0094 58.1817 21.3374C58.5121 21.6653 58.9603 21.8504 59.4284 21.8523H91.9994C92.1368 21.8454 92.2745 21.8454 92.412 21.8523C95.2725 22.0943 102.476 23.3322 107.554 29.577C113.38 36.7417 113.667 47.4678 108.253 55.075C103.616 61.5688 96.6364 63.3461 93.8458 63.8095C93.5821 63.8511 93.3155 63.8719 93.0484 63.8717L70.1782 63.9132H70.1292Z" fill="white"/>
</svg>
