<svg width="240" height="80" viewBox="0 0 240 80" fill="none" xmlns="http://www.w3.org/2000/svg">
<rect width="240" height="80" rx="8" fill="#353535"/>
<path d="M34.6096 39.9234L15.1792 61.0118C15.181 61.0156 15.181 61.0212 15.1828 61.0249C15.7796 63.3148 17.8236 65 20.2508 65C21.2217 65 22.1323 64.7313 22.9134 64.261L22.9755 64.2236L44.8459 51.3186L34.6096 39.9234Z" fill="#EA4335"/>
<path d="M54.2662 36.3324L54.248 36.3193L44.8056 30.7225L34.1678 40.4026L44.8439 51.3164L54.2352 45.7755C55.8813 44.8648 57 43.09 57 41.0446C57 39.0104 55.8977 37.245 54.2662 36.3324Z" fill="#FBBC04"/>
<path d="M15.1788 20.9866C15.062 21.4271 15 21.8899 15 22.3676V59.6327C15 60.1104 15.062 60.5733 15.1807 61.0118L35.2772 40.4627L15.1788 20.9866Z" fill="#4285F4"/>
<path d="M34.7531 40.9998L44.8087 30.7187L22.9638 17.767C22.17 17.2799 21.2429 17 20.2519 17C17.8247 17 15.7771 18.6889 15.1804 20.9807C15.1804 20.9825 15.1785 20.9844 15.1785 20.9863L34.7531 40.9998Z" fill="#34A853"/>
<path d="M76.68 28V18.016H73.48V16.8H81.256V18.016H77.928V28H76.68ZM84.557 28.16C83.8317 28.16 83.1757 27.9733 82.589 27.6C82.0023 27.216 81.5383 26.6987 81.197 26.048C80.8557 25.3867 80.685 24.64 80.685 23.808C80.685 22.9653 80.861 22.2187 81.213 21.568C81.565 20.9173 82.0343 20.4053 82.621 20.032C83.2183 19.6587 83.885 19.472 84.621 19.472C85.0583 19.472 85.4637 19.536 85.837 19.664C86.2103 19.792 86.541 19.9733 86.829 20.208C87.1277 20.432 87.373 20.6987 87.565 21.008C87.7677 21.3067 87.9063 21.632 87.981 21.984L87.629 21.808L87.677 19.648H88.877V28H87.661V25.952L87.981 25.744C87.9063 26.064 87.7623 26.3733 87.549 26.672C87.3357 26.96 87.0743 27.216 86.765 27.44C86.4663 27.664 86.125 27.84 85.741 27.968C85.3677 28.096 84.973 28.16 84.557 28.16ZM84.829 27.008C85.3837 27.008 85.8797 26.8747 86.317 26.608C86.7543 26.3307 87.0957 25.952 87.341 25.472C87.597 24.9813 87.725 24.4267 87.725 23.808C87.725 23.1893 87.597 22.64 87.341 22.16C87.0957 21.68 86.7543 21.3013 86.317 21.024C85.8797 20.7467 85.3837 20.608 84.829 20.608C84.2637 20.608 83.7623 20.7467 83.325 21.024C82.8983 21.3013 82.557 21.68 82.301 22.16C82.0557 22.64 81.933 23.1893 81.933 23.808C81.933 24.416 82.0557 24.9653 82.301 25.456C82.5463 25.936 82.8877 26.3147 83.325 26.592C83.7623 26.8693 84.2637 27.008 84.829 27.008ZM84.829 18.464C84.7757 18.3787 84.733 18.2933 84.701 18.208C84.669 18.112 84.653 18.0267 84.653 17.952C84.653 17.8667 84.6797 17.7707 84.733 17.664C84.7863 17.5573 84.8983 17.4453 85.069 17.328C85.2397 17.2107 85.3677 17.1147 85.453 17.04C85.549 16.9653 85.597 16.8853 85.597 16.8C85.597 16.6827 85.533 16.5973 85.405 16.544C85.2877 16.4907 85.1383 16.464 84.957 16.464C84.797 16.464 84.6157 16.4907 84.413 16.544C84.2103 16.5867 84.013 16.6507 83.821 16.736L83.581 15.936C83.8157 15.8187 84.061 15.7333 84.317 15.68C84.5837 15.616 84.8237 15.584 85.037 15.584C85.5597 15.584 85.949 15.696 86.205 15.92C86.461 16.144 86.589 16.4053 86.589 16.704C86.589 16.9493 86.525 17.1413 86.397 17.28C86.269 17.4187 86.1303 17.5307 85.981 17.616C85.8317 17.7013 85.7143 17.776 85.629 17.84C85.5437 17.904 85.501 17.9947 85.501 18.112C85.501 18.1333 85.501 18.16 85.501 18.192C85.5117 18.2133 85.5223 18.2453 85.533 18.288L84.829 18.464ZM91.5349 28V19.648H92.7349V28H91.5349ZM92.1269 17.84C91.8282 17.84 91.5989 17.7653 91.4389 17.616C91.2895 17.456 91.2149 17.2427 91.2149 16.976C91.2149 16.7093 91.2949 16.496 91.4549 16.336C91.6149 16.176 91.8389 16.096 92.1269 16.096C92.4149 16.096 92.6389 16.176 92.7989 16.336C92.9589 16.4853 93.0389 16.6987 93.0389 16.976C93.0389 17.232 92.9589 17.44 92.7989 17.6C92.6389 17.76 92.4149 17.84 92.1269 17.84ZM100.32 28V16.8H101.456L108.784 26.496L108.56 26.784C108.528 26.6133 108.501 26.3573 108.48 26.016C108.469 25.6747 108.453 25.2907 108.432 24.864C108.421 24.4267 108.411 23.9733 108.4 23.504C108.389 23.0347 108.379 22.576 108.368 22.128C108.368 21.68 108.368 21.2747 108.368 20.912V16.8H109.616V28H108.448L101.152 18.432L101.344 18.096C101.376 18.5227 101.403 18.944 101.424 19.36C101.456 19.776 101.477 20.176 101.488 20.56C101.509 20.944 101.525 21.296 101.536 21.616C101.547 21.936 101.552 22.208 101.552 22.432C101.563 22.656 101.568 22.816 101.568 22.912V28H100.32ZM116.034 31.68C115.415 31.68 114.828 31.584 114.274 31.392C113.719 31.2 113.26 30.96 112.898 30.672L113.378 29.664C113.591 29.8347 113.836 29.984 114.114 30.112C114.402 30.2507 114.711 30.3573 115.042 30.432C115.372 30.5173 115.708 30.56 116.05 30.56C116.668 30.56 117.191 30.4427 117.618 30.208C118.055 29.984 118.386 29.648 118.61 29.2C118.844 28.752 118.962 28.1973 118.962 27.536V25.936L119.154 25.888C119.058 26.2933 118.85 26.672 118.53 27.024C118.21 27.3653 117.82 27.6427 117.362 27.856C116.903 28.0587 116.418 28.16 115.906 28.16C115.127 28.16 114.428 27.9733 113.81 27.6C113.202 27.2267 112.722 26.7147 112.37 26.064C112.018 25.4027 111.842 24.656 111.842 23.824C111.842 22.9813 112.018 22.2347 112.37 21.584C112.732 20.9227 113.218 20.4053 113.826 20.032C114.434 19.6587 115.116 19.472 115.874 19.472C116.204 19.472 116.524 19.5147 116.834 19.6C117.143 19.6747 117.426 19.7867 117.682 19.936C117.948 20.0853 118.188 20.256 118.402 20.448C118.615 20.64 118.791 20.848 118.93 21.072C119.079 21.296 119.186 21.5253 119.25 21.76L118.914 21.712L118.962 19.648H120.162V27.488C120.162 28.16 120.066 28.752 119.874 29.264C119.682 29.7867 119.399 30.224 119.026 30.576C118.663 30.9387 118.226 31.2107 117.714 31.392C117.212 31.584 116.652 31.68 116.034 31.68ZM116.05 27.008C116.615 27.008 117.116 26.8747 117.554 26.608C118.002 26.3307 118.354 25.952 118.61 25.472C118.866 24.992 118.994 24.4373 118.994 23.808C118.994 23.1893 118.866 22.64 118.61 22.16C118.364 21.68 118.018 21.3013 117.57 21.024C117.122 20.7467 116.615 20.608 116.05 20.608C115.474 20.608 114.962 20.7467 114.514 21.024C114.076 21.3013 113.73 21.68 113.474 22.16C113.218 22.64 113.09 23.1893 113.09 23.808C113.09 24.416 113.212 24.9653 113.458 25.456C113.714 25.936 114.06 26.3147 114.498 26.592C114.946 26.8693 115.463 27.008 116.05 27.008ZM125.76 28.16C125.035 28.16 124.379 27.9733 123.792 27.6C123.205 27.216 122.741 26.6987 122.4 26.048C122.059 25.3867 121.888 24.64 121.888 23.808C121.888 22.9653 122.064 22.2187 122.416 21.568C122.768 20.9173 123.237 20.4053 123.824 20.032C124.421 19.6587 125.088 19.472 125.824 19.472C126.261 19.472 126.667 19.536 127.04 19.664C127.413 19.792 127.744 19.9733 128.032 20.208C128.331 20.432 128.576 20.6987 128.768 21.008C128.971 21.3067 129.109 21.632 129.184 21.984L128.832 21.808L128.88 19.648H130.08V28H128.864V25.952L129.184 25.744C129.109 26.064 128.965 26.3733 128.752 26.672C128.539 26.96 128.277 27.216 127.968 27.44C127.669 27.664 127.328 27.84 126.944 27.968C126.571 28.096 126.176 28.16 125.76 28.16ZM126.032 27.008C126.587 27.008 127.083 26.8747 127.52 26.608C127.957 26.3307 128.299 25.952 128.544 25.472C128.8 24.9813 128.928 24.4267 128.928 23.808C128.928 23.1893 128.8 22.64 128.544 22.16C128.299 21.68 127.957 21.3013 127.52 21.024C127.083 20.7467 126.587 20.608 126.032 20.608C125.467 20.608 124.965 20.7467 124.528 21.024C124.101 21.3013 123.76 21.68 123.504 22.16C123.259 22.64 123.136 23.1893 123.136 23.808C123.136 24.416 123.259 24.9653 123.504 25.456C123.749 25.936 124.091 26.3147 124.528 26.592C124.965 26.8693 125.467 27.008 126.032 27.008ZM133.639 31.68L135.255 27.744L135.367 28.88L131.175 19.648H132.535L135.399 26.048C135.484 26.2187 135.569 26.4213 135.655 26.656C135.74 26.88 135.82 27.104 135.895 27.328L135.447 27.28C135.521 27.0987 135.591 26.912 135.655 26.72C135.729 26.528 135.799 26.3413 135.863 26.16L138.375 19.648H139.751L136.375 28L134.935 31.68H133.639Z" fill="white"/>
<path d="M82.888 60.24C81.624 60.24 80.456 60.024 79.384 59.592C78.312 59.144 77.376 58.528 76.576 57.744C75.792 56.96 75.184 56.048 74.752 55.008C74.32 53.952 74.104 52.808 74.104 51.576C74.104 50.36 74.32 49.232 74.752 48.192C75.2 47.136 75.824 46.224 76.624 45.456C77.424 44.672 78.36 44.064 79.432 43.632C80.52 43.2 81.688 42.984 82.936 42.984C83.816 42.984 84.664 43.104 85.48 43.344C86.296 43.584 87.032 43.92 87.688 44.352C88.344 44.784 88.888 45.272 89.32 45.816L87.352 47.88C86.904 47.448 86.44 47.088 85.96 46.8C85.496 46.512 85.008 46.288 84.496 46.128C83.984 45.968 83.456 45.888 82.912 45.888C82.112 45.888 81.368 46.032 80.68 46.32C80.008 46.608 79.416 47.008 78.904 47.52C78.408 48.032 78.016 48.632 77.728 49.32C77.44 50.008 77.296 50.76 77.296 51.576C77.296 52.36 77.44 53.104 77.728 53.808C78.032 54.512 78.448 55.128 78.976 55.656C79.504 56.184 80.112 56.6 80.8 56.904C81.504 57.192 82.248 57.336 83.032 57.336C83.624 57.336 84.176 57.248 84.688 57.072C85.2 56.896 85.656 56.656 86.056 56.352C86.456 56.032 86.76 55.664 86.968 55.248C87.192 54.832 87.304 54.384 87.304 53.904V53.376L87.736 53.88H82.768V51.096H90.376C90.408 51.272 90.432 51.472 90.448 51.696C90.464 51.904 90.472 52.112 90.472 52.32C90.488 52.512 90.496 52.68 90.496 52.824C90.496 53.928 90.304 54.936 89.92 55.848C89.536 56.744 88.992 57.52 88.288 58.176C87.6 58.832 86.792 59.344 85.864 59.712C84.952 60.064 83.96 60.24 82.888 60.24ZM99.0276 60.24C97.7636 60.24 96.6356 59.96 95.6436 59.4C94.6516 58.824 93.8676 58.04 93.2916 57.048C92.7156 56.056 92.4276 54.928 92.4276 53.664C92.4276 52.4 92.7156 51.272 93.2916 50.28C93.8676 49.288 94.6516 48.512 95.6436 47.952C96.6356 47.376 97.7636 47.088 99.0276 47.088C100.276 47.088 101.396 47.376 102.388 47.952C103.38 48.512 104.156 49.288 104.716 50.28C105.292 51.272 105.58 52.4 105.58 53.664C105.58 54.928 105.292 56.056 104.716 57.048C104.156 58.04 103.38 58.824 102.388 59.4C101.396 59.96 100.276 60.24 99.0276 60.24ZM99.0276 57.624C99.7156 57.624 100.324 57.448 100.852 57.096C101.396 56.744 101.82 56.272 102.124 55.68C102.444 55.088 102.596 54.416 102.58 53.664C102.596 52.896 102.444 52.216 102.124 51.624C101.82 51.032 101.396 50.568 100.852 50.232C100.324 49.88 99.7156 49.704 99.0276 49.704C98.3396 49.704 97.7156 49.88 97.1556 50.232C96.6116 50.568 96.1876 51.04 95.8836 51.648C95.5796 52.24 95.4276 52.912 95.4276 53.664C95.4276 54.416 95.5796 55.088 95.8836 55.68C96.1876 56.272 96.6116 56.744 97.1556 57.096C97.7156 57.448 98.3396 57.624 99.0276 57.624ZM114.004 60.24C112.74 60.24 111.612 59.96 110.62 59.4C109.628 58.824 108.844 58.04 108.268 57.048C107.692 56.056 107.404 54.928 107.404 53.664C107.404 52.4 107.692 51.272 108.268 50.28C108.844 49.288 109.628 48.512 110.62 47.952C111.612 47.376 112.74 47.088 114.004 47.088C115.252 47.088 116.372 47.376 117.364 47.952C118.356 48.512 119.132 49.288 119.692 50.28C120.268 51.272 120.556 52.4 120.556 53.664C120.556 54.928 120.268 56.056 119.692 57.048C119.132 58.04 118.356 58.824 117.364 59.4C116.372 59.96 115.252 60.24 114.004 60.24ZM114.004 57.624C114.692 57.624 115.3 57.448 115.828 57.096C116.372 56.744 116.796 56.272 117.1 55.68C117.42 55.088 117.572 54.416 117.556 53.664C117.572 52.896 117.42 52.216 117.1 51.624C116.796 51.032 116.372 50.568 115.828 50.232C115.3 49.88 114.692 49.704 114.004 49.704C113.316 49.704 112.692 49.88 112.132 50.232C111.588 50.568 111.164 51.04 110.86 51.648C110.556 52.24 110.404 52.912 110.404 53.664C110.404 54.416 110.556 55.088 110.86 55.68C111.164 56.272 111.588 56.744 112.132 57.096C112.692 57.448 113.316 57.624 114.004 57.624ZM128.885 65.52C127.941 65.52 126.997 65.376 126.053 65.088C125.125 64.8 124.373 64.424 123.797 63.96L124.853 61.776C125.189 62.016 125.565 62.224 125.981 62.4C126.397 62.576 126.837 62.712 127.301 62.808C127.781 62.904 128.253 62.952 128.717 62.952C129.565 62.952 130.269 62.816 130.829 62.544C131.405 62.288 131.837 61.888 132.125 61.344C132.413 60.816 132.557 60.152 132.557 59.352V57.024L132.989 57.192C132.893 57.688 132.629 58.16 132.197 58.608C131.765 59.056 131.221 59.424 130.565 59.712C129.909 59.984 129.237 60.12 128.549 60.12C127.349 60.12 126.285 59.84 125.357 59.28C124.445 58.72 123.717 57.96 123.173 57C122.645 56.024 122.381 54.904 122.381 53.64C122.381 52.376 122.645 51.256 123.173 50.28C123.701 49.288 124.421 48.512 125.333 47.952C126.261 47.376 127.301 47.088 128.453 47.088C128.933 47.088 129.397 47.144 129.845 47.256C130.293 47.368 130.701 47.528 131.069 47.736C131.453 47.944 131.797 48.176 132.101 48.432C132.405 48.688 132.653 48.96 132.845 49.248C133.037 49.536 133.157 49.816 133.205 50.088L132.581 50.28L132.629 47.352H135.533V59.136C135.533 60.16 135.381 61.064 135.077 61.848C134.773 62.632 134.333 63.296 133.757 63.84C133.181 64.4 132.485 64.816 131.669 65.088C130.853 65.376 129.925 65.52 128.885 65.52ZM129.005 57.6C129.725 57.6 130.357 57.432 130.901 57.096C131.461 56.76 131.893 56.296 132.197 55.704C132.501 55.112 132.653 54.432 132.653 53.664C132.653 52.88 132.493 52.192 132.173 51.6C131.869 50.992 131.445 50.52 130.901 50.184C130.357 49.848 129.725 49.68 129.005 49.68C128.285 49.68 127.653 49.856 127.109 50.208C126.565 50.544 126.133 51.016 125.813 51.624C125.509 52.216 125.357 52.896 125.357 53.664C125.357 54.416 125.509 55.096 125.813 55.704C126.133 56.296 126.565 56.76 127.109 57.096C127.653 57.432 128.285 57.6 129.005 57.6ZM138.971 60V42.24H141.947V60H138.971ZM151.109 60.24C149.781 60.24 148.605 59.96 147.581 59.4C146.573 58.84 145.781 58.08 145.205 57.12C144.645 56.144 144.365 55.032 144.365 53.784C144.365 52.792 144.525 51.888 144.845 51.072C145.165 50.256 145.605 49.552 146.165 48.96C146.741 48.352 147.421 47.888 148.205 47.568C149.005 47.232 149.877 47.064 150.821 47.064C151.653 47.064 152.429 47.224 153.149 47.544C153.869 47.864 154.493 48.304 155.021 48.864C155.549 49.408 155.949 50.064 156.221 50.832C156.509 51.584 156.645 52.408 156.629 53.304L156.605 54.336H146.357L145.805 52.32H154.133L153.749 52.728V52.2C153.701 51.704 153.541 51.272 153.269 50.904C152.997 50.52 152.645 50.224 152.213 50.016C151.797 49.792 151.333 49.68 150.821 49.68C150.037 49.68 149.373 49.832 148.829 50.136C148.301 50.44 147.901 50.88 147.629 51.456C147.357 52.016 147.221 52.72 147.221 53.568C147.221 54.384 147.389 55.096 147.725 55.704C148.077 56.312 148.565 56.784 149.189 57.12C149.829 57.44 150.573 57.6 151.421 57.6C152.013 57.6 152.557 57.504 153.053 57.312C153.549 57.12 154.085 56.776 154.661 56.28L156.125 58.32C155.693 58.72 155.197 59.064 154.637 59.352C154.093 59.624 153.517 59.84 152.909 60C152.301 60.16 151.701 60.24 151.109 60.24ZM166.826 60V43.2H173.81C174.77 43.2 175.634 43.432 176.402 43.896C177.186 44.36 177.81 44.992 178.274 45.792C178.738 46.592 178.97 47.488 178.97 48.48C178.97 49.488 178.738 50.4 178.274 51.216C177.81 52.016 177.186 52.656 176.402 53.136C175.634 53.616 174.77 53.856 173.81 53.856H169.946V60H166.826ZM169.946 50.976H173.594C173.994 50.976 174.354 50.864 174.674 50.64C175.01 50.416 175.274 50.12 175.466 49.752C175.674 49.384 175.778 48.968 175.778 48.504C175.778 48.04 175.674 47.632 175.466 47.28C175.274 46.912 175.01 46.624 174.674 46.416C174.354 46.192 173.994 46.08 173.594 46.08H169.946V50.976ZM181.768 60V42.24H184.744V60H181.768ZM192.754 60.24C191.714 60.24 190.77 59.952 189.922 59.376C189.074 58.8 188.394 58.016 187.882 57.024C187.37 56.032 187.114 54.904 187.114 53.64C187.114 52.376 187.37 51.248 187.882 50.256C188.394 49.264 189.09 48.488 189.97 47.928C190.85 47.368 191.842 47.088 192.946 47.088C193.586 47.088 194.17 47.184 194.698 47.376C195.226 47.552 195.69 47.808 196.09 48.144C196.49 48.48 196.818 48.864 197.074 49.296C197.346 49.728 197.53 50.192 197.626 50.688L196.978 50.52V47.352H199.954V60H196.954V56.976L197.65 56.856C197.538 57.288 197.33 57.712 197.026 58.128C196.738 58.528 196.37 58.888 195.922 59.208C195.49 59.512 195.002 59.76 194.458 59.952C193.93 60.144 193.362 60.24 192.754 60.24ZM193.57 57.624C194.258 57.624 194.866 57.456 195.394 57.12C195.922 56.784 196.33 56.32 196.618 55.728C196.922 55.12 197.074 54.424 197.074 53.64C197.074 52.872 196.922 52.192 196.618 51.6C196.33 51.008 195.922 50.544 195.394 50.208C194.866 49.872 194.258 49.704 193.57 49.704C192.882 49.704 192.274 49.872 191.746 50.208C191.234 50.544 190.834 51.008 190.546 51.6C190.258 52.192 190.114 52.872 190.114 53.64C190.114 54.424 190.258 55.12 190.546 55.728C190.834 56.32 191.234 56.784 191.746 57.12C192.274 57.456 192.882 57.624 193.57 57.624ZM205.015 65.52L207.703 59.304L207.727 61.272L201.487 47.352H204.895L208.375 55.608C208.487 55.816 208.599 56.096 208.711 56.448C208.823 56.784 208.919 57.12 208.999 57.456L208.399 57.648C208.511 57.344 208.631 57.024 208.759 56.688C208.887 56.336 209.007 55.976 209.119 55.608L212.095 47.352H215.527L210.247 60L208.087 65.52H205.015Z" fill="white"/>
</svg>
