<svg width="30" height="30" viewBox="0 0 30 30" fill="none" xmlns="http://www.w3.org/2000/svg">
<path d="M24.9009 3.05277V3.05273H24.8916H5.37476V3.0527L5.36546 3.05277C4.71531 3.0576 4.09316 3.31802 3.63341 3.77776C3.17367 4.2375 2.91325 4.85966 2.90842 5.50981L2.90839 5.50981V5.5191V25.0359H2.90835L2.90842 25.0452C2.91325 25.6954 3.17367 26.3175 3.63342 26.7772C4.09315 27.237 4.71531 27.4974 5.36546 27.5022L5.36546 27.5023H5.37476H15.8831H17.1331V26.2523V17.7651V16.5151H15.8831H14.2797V15.6953H15.8831H17.1331V14.4453V12.0034C17.1331 10.8436 17.4807 10.0963 17.9436 9.63909C18.4104 9.17805 19.1353 8.8726 20.1541 8.8726C20.6139 8.8726 21.0431 8.87325 21.4557 8.89061V9.45468H20.9589C20.1008 9.45468 19.2417 9.65794 18.6605 10.3503C18.1206 10.9935 18.0627 11.7906 18.0627 12.3235V14.4361V15.6861H19.3127H21.1829L21.0767 16.506H19.3127H18.0627V17.756V26.2523V27.5023H19.3127H24.8916V27.5023L24.9009 27.5022C25.551 27.4974 26.1732 27.237 26.6329 26.7772C27.0926 26.3175 27.3531 25.6954 27.3579 25.0452H27.3579V25.0359V5.5191H27.358L27.3579 5.50981C27.3531 4.85966 27.0926 4.2375 26.6329 3.77776C26.1732 3.31802 25.551 3.0576 24.9009 3.05277Z" fill="#007BFF" stroke="white" stroke-width="2.5"/>
</svg>
