<svg width="41" height="41" viewBox="0 0 41 41" fill="none" xmlns="http://www.w3.org/2000/svg">
<path d="M36.2122 12.6811L36.2215 12.7318C36.6801 15.2208 36.9029 17.7471 36.8869 20.2775C36.9029 22.8078 36.6801 25.3341 36.2215 27.8232L36.2122 27.8738L36.1988 27.9235C35.9671 28.7788 35.5137 29.5579 34.8847 30.183C34.2562 30.8076 33.4745 31.2566 32.618 31.4861L36.2122 12.6811ZM36.2122 12.6811L36.1988 12.6315M36.2122 12.6811L36.1988 12.6315M36.1988 12.6315C35.9671 11.7761 35.5137 10.997 34.8847 10.3719M36.1988 12.6315L34.8847 10.3719M20.3396 9.63525C20.3396 8.38525 20.3395 8.38525 20.3394 8.38525H20.339L20.3375 8.38525L20.332 8.38526L20.3107 8.38527L20.2287 8.38541C20.1571 8.38557 20.052 8.38589 19.9178 8.38652C19.6492 8.38778 19.2635 8.3903 18.7934 8.39534C17.8537 8.4054 16.5744 8.42554 15.2187 8.4659C13.8651 8.50619 12.4252 8.56691 11.1673 8.65888C9.94531 8.74822 8.78803 8.87349 8.06199 9.06862C7.2052 9.29797 6.42315 9.7471 5.79443 10.3719C5.16548 10.997 4.71204 11.7761 4.48037 12.6315L4.46691 12.6811L4.45759 12.7318C3.99905 15.2208 3.77628 17.7471 3.7922 20.2775C3.77628 22.8078 3.99905 25.3341 4.45759 27.8232L4.46691 27.8738L4.48037 27.9235C4.71204 28.7788 5.16548 29.5579 5.79443 30.183C6.42294 30.8076 7.20466 31.2566 8.06111 31.4861C8.78709 31.6813 9.94481 31.8067 11.1673 31.896C12.4252 31.988 13.8651 32.0487 15.2187 32.089C16.5744 32.1294 17.8537 32.1495 18.7934 32.1596C19.2635 32.1646 19.6492 32.1671 19.9178 32.1684C20.052 32.169 20.1571 32.1693 20.2287 32.1695L20.3107 32.1696L20.332 32.1697L20.3375 32.1697H20.339H20.3394C20.3395 32.1697 20.3396 32.1697 20.3396 30.9197C20.3396 32.1697 20.3396 32.1697 20.3398 32.1697H20.3402H20.3416L20.3472 32.1697L20.3684 32.1696L20.4504 32.1695C20.5221 32.1693 20.6271 32.169 20.7614 32.1684C21.0299 32.1671 21.4157 32.1646 21.8858 32.1596C22.8255 32.1495 24.1047 32.1294 25.4604 32.089C26.814 32.0487 28.2539 31.988 29.5118 31.896C30.7334 31.8067 31.8903 31.6815 32.6164 31.4865L20.3396 9.63525ZM20.3396 9.63525C20.3396 8.38525 20.3396 8.38525 20.3398 8.38525M20.3396 9.63525L20.3398 8.38525M34.8847 10.3719C34.256 9.74711 33.474 9.29799 32.6172 9.06864M34.8847 10.3719L32.6172 9.06864M32.6172 9.06864C31.8912 8.87349 30.7339 8.74823 29.5118 8.65888M32.6172 9.06864L29.5118 8.65888M29.5118 8.65888C28.2539 8.56691 26.814 8.50619 25.4604 8.4659M29.5118 8.65888L25.4604 8.4659M25.4604 8.4659C24.1047 8.42554 22.8255 8.4054 21.8858 8.39534M25.4604 8.4659L21.8858 8.39534M21.8858 8.39534C21.4157 8.3903 21.0299 8.38778 20.7614 8.38652M21.8858 8.39534L20.7614 8.38652M20.7614 8.38652C20.6271 8.38589 20.5221 8.38557 20.4504 8.38541M20.7614 8.38652L20.4504 8.38541M20.4504 8.38541L20.3684 8.38527M20.4504 8.38541L20.3684 8.38527M20.3684 8.38527L20.3472 8.38526M20.3684 8.38527L20.3472 8.38526M20.3472 8.38526L20.3416 8.38525M20.3472 8.38526L20.3416 8.38525M20.3416 8.38525L20.3402 8.38525M20.3416 8.38525L20.3402 8.38525M20.3402 8.38525H20.3398M20.3402 8.38525H20.3398M22.7134 20.2775L18.5301 22.6793V17.8756L22.7134 20.2775Z" fill="#007BFF" stroke="white" stroke-width="2.5"/>
</svg>
