<svg width="148" height="53" viewBox="0 0 148 53" fill="none" xmlns="http://www.w3.org/2000/svg">
<path d="M15.5044 44.7609C11.407 44.7572 7.47741 43.1354 4.57283 40.2495C1.66825 37.3636 0.024441 33.4478 0 29.3563V26.9672C0 26.0639 0.359348 25.1976 0.998992 24.5588C1.63864 23.9201 2.50618 23.5612 3.41077 23.5612C4.31536 23.5612 5.18291 23.9201 5.82255 24.5588C6.46219 25.1976 6.82154 26.0639 6.82154 26.9672V29.3563C6.84338 31.6428 7.76832 33.8282 9.39522 35.4373C11.0221 37.0465 13.2194 37.9491 15.5093 37.949L31.1403 37.915C33.2689 37.5292 35.172 36.3521 36.466 34.6209C37.453 33.1796 37.9627 31.4656 37.9234 29.72C37.884 27.9744 37.2977 26.2851 36.2468 24.8896C34.3903 22.5881 31.574 22.0918 30.5654 21.9702H8.04942C5.91661 21.9663 3.87219 21.1189 2.36361 19.6133C0.855022 18.1078 0.00515134 16.0668 0 13.937V13.2217C0.000860365 13.0507 0.0138866 12.88 0.0389802 12.7108C0.547499 9.1642 2.29383 5.91081 4.96998 3.52445C9.99843 -0.801129 17.7165 -1.19038 23.3248 2.5951C25.5851 4.14431 27.3739 6.28581 28.4946 8.78423C28.6808 9.19125 28.7849 9.63091 28.8009 10.0781C28.817 10.5253 28.7446 10.9713 28.5881 11.3906C28.4315 11.8099 28.1938 12.1942 27.8885 12.5218C27.5832 12.8493 27.2163 13.1136 26.8087 13.2996C26.4011 13.4855 25.9608 13.5895 25.513 13.6055C25.0651 13.6215 24.6185 13.5493 24.1986 13.393C23.7788 13.2366 23.3938 12.9992 23.0658 12.6944C22.7378 12.3895 22.4732 12.0231 22.287 11.616C21.6812 10.2551 20.714 9.08561 19.4901 8.23441C16.4838 6.21029 12.0546 6.40492 9.40886 8.68205C8.0259 9.95147 7.11397 11.651 6.82154 13.5039V13.937C6.82154 14.2626 6.95075 14.575 7.18088 14.8057C7.41102 15.0364 7.72332 15.1667 8.04942 15.168H30.7408C30.8366 15.1631 30.9325 15.1631 31.0283 15.168C33.0211 15.3383 38.0399 16.2092 41.5773 20.6029C45.6361 25.6438 45.8359 33.1904 42.0646 38.5426C38.8341 43.1115 33.9713 44.362 32.0271 44.688C31.8434 44.7172 31.6577 44.7319 31.4717 44.7317L15.5385 44.7609H15.5044Z" fill="#007BFF"/>
<path d="M132.233 52.331L136.232 42.9108L136.298 45.6212L127.837 27.1774H133.819L137.521 36.0026C137.72 36.4433 137.907 36.9171 138.083 37.4239C138.259 37.9307 138.392 38.4155 138.48 38.8783L137.753 39.308C137.885 38.9774 138.028 38.5698 138.182 38.085C138.359 37.5782 138.546 37.0383 138.744 36.4654L141.983 27.1774H147.999L140.529 44.7287L137.488 52.331H132.233Z" fill="#007BFF"/>
<path d="M118.303 44.7289V22.7483H123.591V44.7289H118.303ZM115.196 31.805V27.1775H126.996V31.805H115.196Z" fill="#007BFF"/>
<path d="M106.591 44.731V27.1796H111.879V44.731H106.591ZM109.235 23.709C108.243 23.709 107.461 23.4776 106.888 23.0149C106.337 22.5301 106.062 21.847 106.062 20.9656C106.062 20.1723 106.348 19.5222 106.921 19.0154C107.494 18.5086 108.265 18.2552 109.235 18.2552C110.227 18.2552 110.998 18.4976 111.549 18.9823C112.1 19.4451 112.375 20.1062 112.375 20.9656C112.375 21.7809 112.089 22.4419 111.516 22.9488C110.965 23.4556 110.205 23.709 109.235 23.709Z" fill="#007BFF"/>
<path d="M91.2512 44.7296V27.1782H96.2753L96.5067 32.8964L95.5151 31.8057C95.7795 30.8581 96.2092 30.0098 96.8041 29.2605C97.4211 28.5113 98.1373 27.9164 98.9526 27.4757C99.7679 27.0349 100.638 26.8146 101.564 26.8146C101.96 26.8146 102.324 26.8476 102.655 26.9138C103.007 26.9799 103.327 27.057 103.613 27.1451L102.159 32.9956C101.916 32.8413 101.586 32.7201 101.167 32.632C100.771 32.5218 100.352 32.4667 99.9112 32.4667C99.4264 32.4667 98.9747 32.5549 98.556 32.7312C98.1373 32.8854 97.7847 33.1168 97.4983 33.4253C97.2118 33.7338 96.9804 34.0974 96.8041 34.516C96.6499 34.9347 96.5728 35.4085 96.5728 35.9373V44.7296H91.2512Z" fill="#007BFF"/>
<path d="M75.9429 45.027C74.4665 45.027 73.1444 44.6414 71.9765 43.8702C70.8307 43.0769 69.9162 41.9971 69.2331 40.6309C68.55 39.2427 68.2084 37.6782 68.2084 35.9373C68.2084 34.1525 68.55 32.5769 69.2331 31.2107C69.9162 29.8445 70.8527 28.7758 72.0426 28.0045C73.2325 27.2112 74.5877 26.8146 76.1082 26.8146C76.9455 26.8146 77.7058 26.9358 78.3889 27.1782C79.094 27.4206 79.711 27.7621 80.2399 28.2028C80.7687 28.6215 81.2205 29.1173 81.5951 29.6902C81.9697 30.2411 82.2451 30.8361 82.4214 31.4751L81.3306 31.3429V27.1782H86.5861V44.7296H81.2315V40.4987L82.4214 40.4657C82.2451 41.0827 81.9586 41.6666 81.562 42.2175C81.1654 42.7684 80.6806 43.2532 80.1076 43.6718C79.5347 44.0905 78.8957 44.4211 78.1906 44.6634C77.4854 44.9058 76.7362 45.027 75.9429 45.027ZM77.3973 40.5648C78.2126 40.5648 78.9177 40.3775 79.5127 40.0029C80.1076 39.6283 80.5704 39.0995 80.9009 38.4163C81.2315 37.7112 81.3967 36.8849 81.3967 35.9373C81.3967 34.9898 81.2315 34.1745 80.9009 33.4914C80.5704 32.7862 80.1076 32.2464 79.5127 31.8718C78.9177 31.4751 78.2126 31.2768 77.3973 31.2768C76.604 31.2768 75.9099 31.4751 75.3149 31.8718C74.742 32.2464 74.2902 32.7862 73.9597 33.4914C73.6292 34.1745 73.4639 34.9898 73.4639 35.9373C73.4639 36.8849 73.6292 37.7112 73.9597 38.4163C74.2902 39.0995 74.742 39.6283 75.3149 40.0029C75.9099 40.3775 76.604 40.5648 77.3973 40.5648Z" fill="#007BFF"/>
<path d="M48.4828 44.7276V20.2681H53.6722V30.746L52.6145 31.1426C52.8569 30.3494 53.2866 29.6332 53.9036 28.9942C54.5426 28.3331 55.3028 27.8042 56.1842 27.4076C57.0657 27.011 57.9912 26.8126 58.9607 26.8126C60.2829 26.8126 61.3957 27.0881 62.2991 27.639C63.2026 28.1678 63.8857 28.9721 64.3484 30.0519C64.8112 31.1096 65.0426 32.4097 65.0426 33.9522V44.7276H59.721V34.3819C59.721 33.6767 59.6218 33.0928 59.4235 32.6301C59.2252 32.1673 58.9167 31.8258 58.498 31.6054C58.1013 31.363 57.6055 31.2528 57.0106 31.2749C56.5478 31.2749 56.1181 31.352 55.7215 31.5062C55.3249 31.6384 54.9833 31.8478 54.6968 32.1343C54.4104 32.3987 54.179 32.7072 54.0027 33.0597C53.8485 33.4123 53.7713 33.7979 53.7713 34.2166V44.7276H51.1601C50.5431 44.7276 50.0143 44.7276 49.5736 44.7276C49.1328 44.7276 48.7693 44.7276 48.4828 44.7276Z" fill="#007BFF"/>
</svg>
