<svg width="36" height="36" viewBox="0 0 36 36" fill="none" xmlns="http://www.w3.org/2000/svg">
<rect x="4.5002" y="5.32422" width="28" height="27" rx="11" fill="#007BFF"/>
<path fill-rule="evenodd" clip-rule="evenodd" d="M24.0299 6.54696C22.5104 6.47754 22.0545 6.46289 18.2065 6.46289V6.46277C14.3586 6.46277 13.9027 6.47754 12.3832 6.54684C11.4693 6.55771 10.5641 6.72557 9.70711 7.04307C9.08561 7.28289 8.52119 7.65014 8.05015 8.1212C7.57911 8.59226 7.21188 9.1567 6.97208 9.77821C6.65458 10.6352 6.48673 11.5404 6.47585 12.4543C6.40644 13.9738 6.39179 14.4297 6.39179 18.2776C6.39179 22.1256 6.40656 22.5815 6.47585 24.101C6.48673 25.0149 6.65458 25.9201 6.97208 26.7771C7.21189 27.3986 7.57913 27.963 8.05017 28.434C8.52121 28.9051 9.08562 29.2723 9.70711 29.5121C10.5641 29.8296 11.4693 29.9975 12.3832 30.0083C13.9026 30.0777 14.3582 30.0924 18.2065 30.0924C22.0548 30.0924 22.5105 30.0776 24.0299 30.0083C24.9438 29.9975 25.849 29.8296 26.706 29.5121C27.3275 29.2723 27.8919 28.9051 28.3629 28.434C28.834 27.963 29.2012 27.3986 29.441 26.7771C29.7585 25.9201 29.9264 25.0149 29.9372 24.101C30.0066 22.5815 30.0213 22.1256 30.0213 18.2776C30.0213 14.4297 30.0065 13.9738 29.9372 12.4543C29.9264 11.5404 29.7585 10.6352 29.441 9.77821C29.2012 9.15672 28.834 8.59231 28.3629 8.12127C27.8919 7.65023 27.3275 7.283 26.706 7.04319C25.849 6.72569 24.9438 6.55783 24.0299 6.54696ZM12.2648 3.95292C13.8018 3.88278 14.2927 3.86621 18.2065 3.86621C22.1204 3.86621 22.6112 3.88278 24.1477 3.95352C25.3433 3.97746 26.5261 4.20397 27.646 4.62341C28.6034 4.99361 29.4729 5.55974 30.1988 6.28553C30.9247 7.01132 31.4909 7.88075 31.8613 8.83811C32.2806 9.95775 32.5071 11.1404 32.5311 12.3357C32.6013 13.8728 32.6179 14.3637 32.6179 18.2775C32.6179 22.1914 32.6013 22.6822 32.5317 24.2187C32.5078 25.4143 32.2813 26.5971 31.8619 27.7169C31.4916 28.6744 30.9254 29.544 30.1995 30.2699C29.4736 30.9958 28.604 31.562 27.6466 31.9322C26.5267 32.3517 25.3439 32.5782 24.1483 32.6021C22.6112 32.6723 22.1204 32.6888 18.2065 32.6888C14.2927 32.6888 13.8018 32.6723 12.2654 32.6027C11.0698 32.5788 9.88695 32.3523 8.76713 31.9328C7.80966 31.5626 6.94011 30.9964 6.21421 30.2705C5.48832 29.5446 4.92209 28.675 4.55182 27.7175C4.13239 26.5977 3.90588 25.4149 3.88193 24.2193C3.8118 22.6822 3.79523 22.1914 3.79523 18.2775C3.79523 14.3637 3.8118 13.8728 3.88193 12.3363C3.90587 11.1408 4.13237 9.95794 4.55182 8.83811C4.92209 7.88064 5.48832 7.01109 6.21421 6.2852C6.94011 5.5593 7.80966 4.99307 8.76713 4.62281C9.88676 4.20342 11.0694 3.97692 12.2648 3.95292ZM25.9 12.3132C26.8551 12.3132 27.6293 11.539 27.6293 10.5839C27.6293 9.62876 26.8551 8.8545 25.9 8.8545C24.9449 8.8545 24.1706 9.62876 24.1706 10.5839C24.1706 11.539 24.9449 12.3132 25.9 12.3132ZM18.2074 10.878C16.7438 10.878 15.313 11.312 14.096 12.1252C12.879 12.9383 11.9304 14.0941 11.3703 15.4464C10.8102 16.7986 10.6636 18.2866 10.9492 19.7222C11.2347 21.1577 11.9396 22.4764 12.9745 23.5113C14.0095 24.5463 15.3281 25.2511 16.7637 25.5367C18.1992 25.8222 19.6872 25.6757 21.0395 25.1155C22.3917 24.5554 23.5475 23.6069 24.3607 22.3899C25.1739 21.1729 25.6079 19.7421 25.6079 18.2784C25.6079 16.3157 24.8282 14.4334 23.4403 13.0455C22.0525 11.6577 20.1702 10.878 18.2074 10.878ZM18.2074 23.0822C17.2573 23.0822 16.3286 22.8004 15.5386 22.2726C14.7486 21.7448 14.1329 20.9945 13.7693 20.1167C13.4057 19.239 13.3106 18.2731 13.496 17.3412C13.6813 16.4094 14.1388 15.5535 14.8107 14.8816C15.4825 14.2098 16.3384 13.7523 17.2703 13.5669C18.2021 13.3816 19.168 13.4767 20.0458 13.8403C20.9235 14.2039 21.6738 14.8196 22.2016 15.6096C22.7295 16.3996 23.0112 17.3283 23.0112 18.2784C23.0112 19.5525 22.5051 20.7743 21.6042 21.6752C20.7033 22.5761 19.4815 23.0822 18.2074 23.0822Z" fill="white"/>
</svg>
