<svg width="37" height="27" viewBox="0 0 37 27" fill="none" xmlns="http://www.w3.org/2000/svg">
<path d="M34.2122 5.68114L34.2215 5.73176C34.6801 8.22079 34.9029 10.7471 34.8869 13.2775C34.9029 15.8078 34.6801 18.3341 34.2215 20.8232L34.2122 20.8738L34.1988 20.9235C33.9671 21.7788 33.5137 22.5579 32.8847 23.183C32.2562 23.8076 31.4745 24.2566 30.618 24.4861L34.2122 5.68114ZM34.2122 5.68114L34.1988 5.63146M34.2122 5.68114L34.1988 5.63146M34.1988 5.63146C33.9671 4.77607 33.5137 3.99703 32.8847 3.37194M34.1988 5.63146L32.8847 3.37194M18.3396 2.63525C18.3396 1.38525 18.3395 1.38525 18.3394 1.38525H18.339L18.3375 1.38525L18.332 1.38526L18.3107 1.38527L18.2287 1.38541C18.1571 1.38557 18.052 1.38589 17.9178 1.38652C17.6492 1.38778 17.2635 1.3903 16.7934 1.39534C15.8537 1.4054 14.5744 1.42554 13.2187 1.4659C11.8651 1.50619 10.4252 1.56691 9.16733 1.65888C7.94531 1.74822 6.78803 1.87349 6.06199 2.06862C5.2052 2.29797 4.42315 2.7471 3.79443 3.37194C3.16548 3.99703 2.71204 4.77607 2.48037 5.63146L2.46691 5.68114L2.45759 5.73176C1.99905 8.22079 1.77628 10.7471 1.7922 13.2775C1.77628 15.8078 1.99905 18.3341 2.45759 20.8232L2.46691 20.8738L2.48037 20.9235C2.71204 21.7788 3.16548 22.5579 3.79443 23.183C4.42294 23.8076 5.20466 24.2566 6.06111 24.4861C6.78709 24.6813 7.94481 24.8067 9.16733 24.896C10.4252 24.988 11.8651 25.0487 13.2187 25.089C14.5744 25.1294 15.8537 25.1495 16.7934 25.1596C17.2635 25.1646 17.6492 25.1671 17.9178 25.1684C18.052 25.169 18.1571 25.1693 18.2287 25.1695L18.3107 25.1696L18.332 25.1697L18.3375 25.1697H18.339H18.3394C18.3395 25.1697 18.3396 25.1697 18.3396 23.9197C18.3396 25.1697 18.3396 25.1697 18.3398 25.1697H18.3402H18.3416L18.3472 25.1697L18.3684 25.1696L18.4504 25.1695C18.5221 25.1693 18.6271 25.169 18.7614 25.1684C19.0299 25.1671 19.4157 25.1646 19.8858 25.1596C20.8255 25.1495 22.1047 25.1294 23.4604 25.089C24.814 25.0487 26.2539 24.988 27.5118 24.896C28.7334 24.8067 29.8903 24.6815 30.6164 24.4865L18.3396 2.63525ZM18.3396 2.63525C18.3396 1.38525 18.3396 1.38525 18.3398 1.38525M18.3396 2.63525L18.3398 1.38525M32.8847 3.37194C32.256 2.74711 31.474 2.29799 30.6172 2.06864M32.8847 3.37194L30.6172 2.06864M30.6172 2.06864C29.8912 1.87349 28.7339 1.74823 27.5118 1.65888M30.6172 2.06864L27.5118 1.65888M27.5118 1.65888C26.2539 1.56691 24.814 1.50619 23.4604 1.4659M27.5118 1.65888L23.4604 1.4659M23.4604 1.4659C22.1047 1.42554 20.8255 1.4054 19.8858 1.39534M23.4604 1.4659L19.8858 1.39534M19.8858 1.39534C19.4157 1.3903 19.0299 1.38778 18.7614 1.38652M19.8858 1.39534L18.7614 1.38652M18.7614 1.38652C18.6271 1.38589 18.5221 1.38557 18.4504 1.38541M18.7614 1.38652L18.4504 1.38541M18.4504 1.38541L18.3684 1.38527M18.4504 1.38541L18.3684 1.38527M18.3684 1.38527L18.3472 1.38526M18.3684 1.38527L18.3472 1.38526M18.3472 1.38526L18.3416 1.38525M18.3472 1.38526L18.3416 1.38525M18.3416 1.38525L18.3402 1.38525M18.3416 1.38525L18.3402 1.38525M18.3402 1.38525H18.3398M18.3402 1.38525H18.3398M20.7134 13.2775L16.5301 15.6793V10.8756L20.7134 13.2775Z" fill="#007BFF" stroke="white" stroke-width="2.5"/>
</svg>
