<svg width="37" height="37" viewBox="0 0 37 37" fill="none" xmlns="http://www.w3.org/2000/svg">
<path d="M34.7492 9.89734C34.566 9.16568 34.1931 8.4953 33.6679 7.95392C33.1428 7.41254 32.4841 7.01933 31.7583 6.814C29.1067 6.1665 18.5 6.1665 18.5 6.1665C18.5 6.1665 7.89333 6.1665 5.24167 6.87567C4.51592 7.081 3.85722 7.47421 3.33208 8.01559C2.80694 8.55697 2.43397 9.22734 2.25083 9.959C1.76554 12.6501 1.52816 15.38 1.54167 18.1144C1.52437 20.8694 1.76177 23.6202 2.25083 26.3315C2.45273 27.0404 2.83406 27.6853 3.35797 28.2038C3.88189 28.7223 4.53068 29.097 5.24167 29.2915C7.89333 30.0007 18.5 30.0007 18.5 30.0007C18.5 30.0007 29.1067 30.0007 31.7583 29.2915C32.4841 29.0862 33.1428 28.693 33.6679 28.1516C34.1931 27.6102 34.566 26.9398 34.7492 26.2082C35.2307 23.5374 35.4681 20.8283 35.4583 18.1144C35.4756 15.3594 35.2382 12.6087 34.7492 9.89734Z" stroke="white" stroke-width="2.5" stroke-linecap="round" stroke-linejoin="round"/>
<path d="M15.0313 23.1557L23.8958 18.1144L15.0313 13.0732V23.1557Z" stroke="white" stroke-width="2.5" stroke-linecap="round" stroke-linejoin="round"/>
</svg>
